<?xml version="1.0" encoding="iso-8859-1"?>
<!-- Generator: Adobe Illustrator 20.0.0, SVG Export Plug-In . SVG Version: 6.00 Build 0)  -->
<svg version="1.1" 
	 xmlns="http://www.w3.org/2000/svg" xmlns:xlink="http://www.w3.org/1999/xlink" x="0px" y="0px" viewBox="0 0 24 24"
	 style="enable-background:new 0 0 24 24;" xml:space="preserve">
<polygon points="13.559,17.818 14.31,18.183 13.819,17.408 "/>
<path d="M21.16,7.02c-0.717-0.411-2.169-1.129-5.223-2.635c-0.729-0.354-1.638-0.098-2.071,0.583l-2.785,4.394
	c-0.469-0.73-0.821-1.268-1.083-1.629C9.658,7.263,9.449,7.06,9.26,6.989L4.15,4.492c-0.494-0.24-1.019-0.228-1.442,0.039
	C2.289,4.793,2.049,5.252,2.049,5.79v11.104c0,0.676,0.446,1.383,1.061,1.681l4.665,2.265c0.699,0.263,1.26,0.161,1.56-0.036
	c0.442-0.291,0.706-0.776,0.706-1.36v-3.321l-0.002-0.001l0-0.011l9.524,4.624c0.437,0.19,1.202,0.267,1.74-0.009
	c0.462-0.237,0.693-0.752,0.693-1.308c0,0,0.004-9.417,0-11.174C21.994,7.873,21.817,7.397,21.16,7.02z M15.369,6.335
	C16.7,6.993,18.466,7.867,19.528,8.4l-4.524,7.139l-2.734-4.314L15.369,6.335z M4.049,16.807V6.667L8.011,8.59L8.04,18.745
	L4.049,16.807z M10.011,13.873V11.4c0.065,0.102,2.265,3.572,2.265,3.572L10.011,13.873z M19.995,18.721l-3.548-1.723l3.548-5.6v0
	V18.721z"/>
</svg>
